<?xml version="1.0" encoding="utf-8"?>
<!-- Generator: Adobe Illustrator 18.0.0, SVG Export Plug-In . SVG Version: 6.00 Build 0)  -->
<!DOCTYPE svg PUBLIC "-//W3C//DTD SVG 1.1//EN" "http://www.w3.org/Graphics/SVG/1.1/DTD/svg11.dtd">
<svg version="1.1" id="Layer_1" xmlns="http://www.w3.org/2000/svg" xmlns:xlink="http://www.w3.org/1999/xlink" x="0px" y="0px"
	 viewBox="0 0 129 116.1" enable-background="new 0 0 129 116.1" xml:space="preserve">
<g>
	<g>
		<path fill="#0072BC" d="M18.2,55.1H3.4V37h15.2v-4.6C18.6,10,28.8,2.2,48.8,2.2c5.4,0,9.6,0.9,12.8,1.4l-1.5,17.9
			c-2.1-0.7-4.2-1.2-7.9-1.2c-6.4,0-8.9,4.6-8.9,12V37h17.8v18.2H43.3v57H18.2V55.1z"/>
		<path fill="#0072BC" d="M125.4,57.7c-2.8-0.9-5.6-0.9-8.5-0.9c-11.7,0-18.3,8.8-18.3,23.5v31.7H73.6V37h22.9v13.9h0.3
			c4.3-9.5,10.6-15.6,21.5-15.6c2.9,0,6,0.4,8.5,0.9L125.4,57.7z"/>
	</g>
</g>
</svg>
