<?xml version="1.0" encoding="utf-8"?>
<!-- Generator: Adobe Illustrator 18.0.0, SVG Export Plug-In . SVG Version: 6.00 Build 0)  -->
<!DOCTYPE svg PUBLIC "-//W3C//DTD SVG 1.1//EN" "http://www.w3.org/Graphics/SVG/1.1/DTD/svg11.dtd">
<svg version="1.1" id="Layer_1" xmlns="http://www.w3.org/2000/svg" xmlns:xlink="http://www.w3.org/1999/xlink" x="0px" y="0px"
	 viewBox="0 0 139.4 89.7" enable-background="new 0 0 139.4 89.7" xml:space="preserve">
<g>
	<path fill-rule="evenodd" clip-rule="evenodd" fill="#0072BC" d="M44.9,38.4v14.8h24.5c-1,6.4-7.4,18.6-24.5,18.6
		c-14.8,0-26.8-12.2-26.8-27.3c0-15.1,12-27.3,26.8-27.3c8.4,0,14,3.6,17.2,6.7l11.7-11.3c-7.5-7-17.3-11.3-29-11.3
		C21,1.4,1.7,20.7,1.7,44.6c0,23.9,19.3,43.2,43.2,43.2c24.9,0,41.5-17.5,41.5-42.2c0-2.8-0.3-5-0.7-7.2H44.9L44.9,38.4L44.9,38.4z
		 M44.9,38.4"/>
	<polyline fill-rule="evenodd" clip-rule="evenodd" fill="#0072BC" points="137.6,38.4 125.2,38.4 125.2,26.1 112.9,26.1 
		112.9,38.4 100.5,38.4 100.5,50.8 112.9,50.8 112.9,63.1 125.2,63.1 125.2,50.8 137.6,50.8 	"/>
</g>
</svg>
