<?xml version="1.0" encoding="utf-8"?>
<!-- Generator: Adobe Illustrator 18.0.0, SVG Export Plug-In . SVG Version: 6.00 Build 0)  -->
<!DOCTYPE svg PUBLIC "-//W3C//DTD SVG 1.1//EN" "http://www.w3.org/Graphics/SVG/1.1/DTD/svg11.dtd">
<svg version="1.1" id="Layer_1" xmlns="http://www.w3.org/2000/svg" xmlns:xlink="http://www.w3.org/1999/xlink" x="0px" y="0px"
	 viewBox="0 0 151 151" enable-background="new 0 0 151 151" xml:space="preserve">
<g>
	<g>
		<g>
			<path fill="#0072BC" d="M125.5,8.4h-97C18.2,8.4,9.9,16.7,9.9,27v97c0,10.3,8.3,18.6,18.6,18.6h97c10.3,0,18.6-8.3,18.6-18.6V27
				C144.1,16.7,135.8,8.4,125.5,8.4z M77,49.4c14.4,0,26.1,11.7,26.1,26.1c0,14.4-11.7,26.1-26.1,26.1S50.9,89.9,50.9,75.5
				C50.9,61.1,62.6,49.4,77,49.4z M129.2,124c0,2.1-1.7,3.7-3.7,3.7h-97c-2.1,0-3.7-1.7-3.7-3.7V64.3h12.7c-1,3.6-1.6,7.3-1.6,11.2
				c0,22.7,18.4,41,41,41s41-18.4,41-41c0-3.9-0.6-7.6-1.6-11.2h12.7V124z M129.2,45.7c0,2.1-1.7,3.7-3.7,3.7h-18.6
				c-2.1,0-3.7-1.7-3.7-3.7V27c0-2.1,1.7-3.7,3.7-3.7h18.6c2.1,0,3.7,1.7,3.7,3.7V45.7z"/>
		</g>
	</g>
</g>
</svg>
