<?xml version="1.0" encoding="utf-8"?>
<!-- Generator: Adobe Illustrator 18.0.0, SVG Export Plug-In . SVG Version: 6.00 Build 0)  -->
<!DOCTYPE svg PUBLIC "-//W3C//DTD SVG 1.1//EN" "http://www.w3.org/Graphics/SVG/1.1/DTD/svg11.dtd">
<svg version="1.1" id="Layer_1" xmlns="http://www.w3.org/2000/svg" xmlns:xlink="http://www.w3.org/1999/xlink" x="0px" y="0px"
	 viewBox="0 0 207.3 223.3" enable-background="new 0 0 207.3 223.3" xml:space="preserve">
<g>
	<path fill="#0072BC" d="M8.4,5.1c-2.5,2.6-4,6.7-4,12v189.2c0,5.3,1.5,9.4,4,12l0.6,0.6l106-106v-1.2v-1.3L9,4.4L8.4,5.1z"/>
	<path fill="#99C7E4" d="M150.3,148.3L115,112.9v-1.2v-1.3l35.3-35.3l0.8,0.5l41.9,23.8c12,6.8,12,17.9,0,24.7l-41.9,23.8
		L150.3,148.3z"/>
	<path fill="#00568D" d="M151.1,147.8L115,111.7L8.4,218.3c3.9,4.2,10.4,4.7,17.8,0.5L151.1,147.8"/>
	<path fill="#66AAD7" d="M151.1,75.5l-125-71C18.8,0.4,12.3,0.9,8.4,5.1L115,111.7L151.1,75.5z"/>
	<g>
		<path opacity="0.2" enable-background="new    " d="M150.3,147L26.1,217.5c-6.9,3.9-13.2,3.7-17.1,0.1l0,0l-0.6,0.6l0,0l0.6,0.6
			l0,0c4,3.6,10.2,3.9,17.1-0.1l125-71L150.3,147z"/>
		<path opacity="0.12" enable-background="new    " d="M8.4,217c-2.5-2.6-4-6.7-4-12v1.2c0,5.3,1.5,9.4,4,12l0.6-0.6L8.4,217z"/>
	</g>
	<path opacity="0.12" enable-background="new    " d="M192.9,122.8L150.3,147l0.8,0.8l41.9-23.8c6-3.4,9-7.9,9-12.3l0,0
		C201.4,115.7,198.4,119.7,192.9,122.8z"/>
</g>
</svg>
