<?xml version="1.0" encoding="utf-8"?>
<!-- Generator: Adobe Illustrator 18.0.0, SVG Export Plug-In . SVG Version: 6.00 Build 0)  -->
<!DOCTYPE svg PUBLIC "-//W3C//DTD SVG 1.1//EN" "http://www.w3.org/Graphics/SVG/1.1/DTD/svg11.dtd">
<svg version="1.1" id="Layer_1" xmlns="http://www.w3.org/2000/svg" xmlns:xlink="http://www.w3.org/1999/xlink" x="0px" y="0px"
	 viewBox="0 0 174 122" enable-background="new 0 0 174 122" xml:space="preserve">
<g>
	<path fill="#0072BC" d="M150.4,19.3c-5,2.2-10.4,3.7-16.1,4.4c5.8-3.5,10.2-9,12.3-15.5c-5.4,3.2-11.4,5.6-17.8,6.8
		c-5.1-5.5-12.4-8.9-20.5-8.9c-15.5,0-28.1,12.6-28.1,28.1c0,2.2,0.2,4.3,0.7,6.4c-23.3-1.2-44-12.3-57.9-29.3
		c-2.4,4.1-3.8,9-3.8,14.1c0,9.7,5,18.3,12.5,23.4c-4.6-0.1-8.9-1.4-12.7-3.5c0,0.1,0,0.2,0,0.4c0,13.6,9.7,24.9,22.5,27.5
		c-2.4,0.6-4.8,1-7.4,1c-1.8,0-3.6-0.2-5.3-0.5c3.6,11.2,13.9,19.3,26.2,19.5c-9.6,7.5-21.7,12-34.9,12c-2.3,0-4.5-0.1-6.7-0.4
		c12.4,8,27.2,12.6,43,12.6c51.6,0,79.9-42.8,79.9-79.9c0-1.2,0-2.4-0.1-3.6C141.9,29.9,146.6,24.9,150.4,19.3z"/>
</g>
</svg>
