<?xml version="1.0" encoding="utf-8"?>
<!-- Generator: Adobe Illustrator 18.0.0, SVG Export Plug-In . SVG Version: 6.00 Build 0)  -->
<!DOCTYPE svg PUBLIC "-//W3C//DTD SVG 1.1//EN" "http://www.w3.org/Graphics/SVG/1.1/DTD/svg11.dtd">
<svg version="1.1" id="Layer_1" xmlns="http://www.w3.org/2000/svg" xmlns:xlink="http://www.w3.org/1999/xlink" x="0px" y="0px"
	 viewBox="206 202 424 428" enable-background="new 206 202 424 428" xml:space="preserve">
<g>
	<path fill="#4071B7" d="M418.9,209.8c-113.6,0-205.6,92-205.6,205.6S305.3,621,418.9,621s205.6-92,205.6-205.6
		S532.5,209.8,418.9,209.8z M355.7,415.4c0-18.4,1.6-36.8,4-55.2c19.2,2.4,39.2,4,59.2,4s40-1.6,59.2-4c2.4,18.4,4,36.8,4,55.2
		s-1.6,36.8-4,55.2c-19.2-2.4-39.2-4-59.2-4s-40,1.6-59.2,4C357.3,452.2,355.7,433.8,355.7,415.4z M502.9,355.4
		c25.6-4.8,51.2-12.8,75.2-22.4c12.8,24.8,20,52.8,20,82.4c0,29.6-7.2,57.6-20,82.4c-24.8-9.6-49.6-17.6-75.2-22.4c3.2-20,4-40,4-60
		C507.7,395.4,506.1,375.4,502.9,355.4z M564.5,310.6c-21.6,8.8-43.2,15.2-65.6,20c-6.4-29.6-15.2-59.2-28-87.2
		C509.3,254.6,542.1,278.6,564.5,310.6z M439.7,237c15.2,31.2,27.2,64,33.6,97.6c-18.4,2.4-36,4-54.4,4s-36.8-1.6-54.4-4
		c7.2-33.6,18.4-67.2,33.6-97.6c7.2-0.8,13.6-1.6,20.8-1.6C426.1,235.4,432.5,236.2,439.7,237z M366.1,243.4
		c-12,28-21.6,56.8-28,87.2c-22.4-4.8-44.8-11.2-65.6-20C295.7,278.6,328.5,254.6,366.1,243.4z M258.9,333
		c24.8,9.6,49.6,17.6,75.2,22.4c-3.2,20-4,40-4,60s1.6,40,4,60c-25.6,4.8-51.2,12.8-75.2,22.4c-12.8-24.8-20-52.8-20-82.4
		S246.1,357.8,258.9,333z M272.5,520.2c21.6-8.8,43.2-15.2,65.6-20c6.4,29.6,15.2,59.2,28,87.2C328.5,575.4,295.7,551.4,272.5,520.2
		z M398.1,593.8c-15.2-31.2-27.2-64-33.6-97.6c18.4-2.4,36-4,54.4-4s36.8,1.6,54.4,4c-7.2,33.6-18.4,67.2-33.6,97.6
		c-7.2,0.8-13.6,1.6-20.8,1.6S404.5,594.6,398.1,593.8z M470.9,587.4c12-28,21.6-56.8,28-87.2c22.4,4.8,44.8,11.2,65.6,20
		C542.1,551.4,509.3,575.4,470.9,587.4z"/>
</g>
</svg>
