<?xml version="1.0" encoding="utf-8"?>
<!-- Generator: Adobe Illustrator 15.0.0, SVG Export Plug-In . SVG Version: 6.00 Build 0)  -->
<!DOCTYPE svg PUBLIC "-//W3C//DTD SVG 1.1//EN" "http://www.w3.org/Graphics/SVG/1.1/DTD/svg11.dtd">
<svg version="1.1" id="Layer_1" xmlns="http://www.w3.org/2000/svg" xmlns:xlink="http://www.w3.org/1999/xlink" x="0px" y="0px"
	 width="612px" height="792px" viewBox="0 0 612 792" enable-background="new 0 0 612 792" xml:space="preserve">
<g>
	<path fill="#C45E38" d="M513.299,300.372c-163.97,0-296.763,132.793-296.763,296.763s132.793,296.762,296.763,296.762
		s296.762-132.792,296.762-296.762S677.269,300.372,513.299,300.372z M422.076,597.135c0-26.559,2.31-53.117,5.773-79.676
		c27.713,3.464,56.581,5.773,85.449,5.773c28.867,0,57.735-2.31,85.449-5.773c3.464,26.559,5.773,53.117,5.773,79.676
		s-2.31,53.116-5.773,79.675c-27.714-3.464-56.582-5.773-85.449-5.773c-28.868,0-57.736,2.31-85.449,5.773
		C424.386,650.251,422.076,623.693,422.076,597.135z M634.544,510.53c36.951-6.928,73.901-18.475,108.543-32.332
		c18.476,35.797,28.868,76.212,28.868,118.937s-10.393,83.14-28.868,118.936c-35.796-13.856-71.592-25.404-108.543-32.332
		c4.619-28.868,5.773-57.736,5.773-86.604C641.473,568.266,639.163,539.398,634.544,510.53z M723.457,445.866
		c-31.178,12.702-62.354,21.94-94.687,28.868c-9.238-42.725-21.939-85.449-40.415-125.864
		C643.781,365.036,691.125,399.677,723.457,445.866z M543.322,339.633c21.939,45.033,39.261,92.377,48.498,140.875
		c-26.559,3.465-51.962,5.773-78.521,5.773s-53.117-2.309-78.521-5.773c10.393-48.498,26.559-96.996,48.499-140.875
		c10.392-1.155,19.63-2.31,30.022-2.31S532.929,338.477,543.322,339.633z M437.087,348.87
		c-17.32,40.415-31.177,81.985-40.415,125.864c-32.332-6.929-64.664-16.166-94.687-28.868
		C335.473,399.677,382.816,365.036,437.087,348.87z M282.356,478.198c35.796,13.857,71.592,25.404,108.543,32.332
		c-4.619,28.868-5.773,57.736-5.773,86.604c0,28.867,2.31,57.735,5.773,86.604c-36.951,6.928-73.901,18.476-108.543,32.332
		c-18.476-35.796-28.868-76.211-28.868-118.936S263.88,513.995,282.356,478.198z M301.986,748.402
		c31.178-12.702,62.354-21.939,94.687-28.868c9.238,42.725,21.939,85.449,40.415,125.864
		C382.816,828.078,335.473,793.436,301.986,748.402z M483.277,854.636c-21.94-45.034-39.261-92.378-48.499-140.876
		c26.559-3.464,51.963-5.773,78.521-5.773s53.117,2.31,78.521,5.773c-10.393,48.498-26.559,96.996-48.498,140.876
		c-10.393,1.154-19.63,2.309-30.022,2.309S492.514,855.791,483.277,854.636z M588.356,845.398
		c17.32-40.415,31.177-81.984,40.415-125.864c32.332,6.929,64.664,16.166,94.687,28.868
		C691.125,793.436,643.781,828.078,588.356,845.398z"/>
</g>
</svg>
