<?xml version="1.0" encoding="utf-8"?>
<!-- Generator: Adobe Illustrator 18.0.0, SVG Export Plug-In . SVG Version: 6.00 Build 0)  -->
<!DOCTYPE svg PUBLIC "-//W3C//DTD SVG 1.1//EN" "http://www.w3.org/Graphics/SVG/1.1/DTD/svg11.dtd">
<svg version="1.1" id="Layer_1" xmlns="http://www.w3.org/2000/svg" xmlns:xlink="http://www.w3.org/1999/xlink" x="0px" y="0px"
	 viewBox="0 0 800 800" enable-background="new 0 0 800 800" xml:space="preserve">
<path id="The_Sharpness_1_" opacity="0.12" enable-background="new    " d="M321,283.2l183.2,123l25.8-13.5L321,283.2z"/>
<g id="Lozenge_2_">
	<g>
		<path fill="#0072BC" d="M784.4,243.1c0,0-7.5-54.2-31.1-77.8c-29.9-31.1-62.9-31.1-78.4-33c-109.6-8.1-273.9-8.1-273.9-8.1h-0.6
			c0,0-164.4,0-273.9,8.1c-15.6,1.9-48.6,1.9-78.4,33c-23.7,23.7-31.1,77.8-31.1,77.8s-7.5,63.5-7.5,127v59.1
			c0,63.5,8.1,127,8.1,127s7.5,54.2,31.1,77.8c29.9,31.1,69.1,30.5,86.5,33.6c62.9,6.2,266.5,8.1,266.5,8.1s164.4,0,273.9-8.1
			c15.6-1.9,48.6-1.9,78.4-33c23.7-23.7,31.1-77.8,31.1-77.8s8.1-63.5,8.1-127v-59.8C792.5,306.6,784.4,243.1,784.4,243.1z
			 M320,501.5V281.1l211.7,110.2L320,501.5z"/>
	</g>
</g>
</svg>
